<mxfile host="app.diagrams.net" agent="Mozilla/5.0 (Macintosh; Intel Mac OS X 10_15_7) AppleWebKit/537.36 (KHTML, like Gecko) Chrome/128.0.0.0 Safari/537.36" version="24.7.14">
  <diagram name="Page-1" id="DQ5HDBV0SRajEkSSgfXe">
    <mxGraphModel dx="1363" dy="913" grid="1" gridSize="10" guides="1" tooltips="1" connect="1" arrows="1" fold="1" page="1" pageScale="1" pageWidth="1169" pageHeight="827" math="0" shadow="0">
      <root>
        <mxCell id="0" />
        <mxCell id="1" parent="0" />
        <mxCell id="aKRwsUcUuE09PBqjVHlD-2" value="App" style="rounded=0;whiteSpace=wrap;html=1;" vertex="1" parent="1">
          <mxGeometry x="330" y="69" width="180" height="30" as="geometry" />
        </mxCell>
        <mxCell id="aKRwsUcUuE09PBqjVHlD-3" value="" style="rounded=0;whiteSpace=wrap;html=1;align=left;" vertex="1" parent="1">
          <mxGeometry x="330" y="99" width="180" height="200" as="geometry" />
        </mxCell>
        <mxCell id="aKRwsUcUuE09PBqjVHlD-4" value="&lt;span style=&quot;&quot;&gt;- total amount : int&lt;/span&gt;&lt;div style=&quot;border-color: var(--border-color);&quot;&gt;- selectedWash : json {name, duration, cost}&lt;/div&gt;&lt;div style=&quot;border-color: var(--border-color);&quot;&gt;- message : string&lt;/div&gt;&lt;div style=&quot;border-color: var(--border-color);&quot;&gt;- elapsedTime : int&lt;/div&gt;&lt;div style=&quot;border-color: var(--border-color);&quot;&gt;- isWashing : bool&lt;/div&gt;&lt;div style=&quot;border-color: var(--border-color);&quot;&gt;- doorStatus : string&lt;/div&gt;&lt;div style=&quot;border-color: var(--border-color);&quot;&gt;- totalTimeSwitchedOn : int&lt;/div&gt;&lt;div style=&quot;border-color: var(--border-color);&quot;&gt;- insufficientFunds : bool&lt;/div&gt;&lt;div style=&quot;border-color: var(--border-color);&quot;&gt;- totalMoneyEarned : float&lt;/div&gt;&lt;div style=&quot;border-color: var(--border-color);&quot;&gt;&lt;br&gt;&lt;/div&gt;&lt;div style=&quot;border-color: var(--border-color);&quot;&gt;- washTimer&lt;/div&gt;&lt;div style=&quot;border-color: var(--border-color);&quot;&gt;- maintenanceTimer&lt;/div&gt;" style="text;html=1;align=left;verticalAlign=middle;whiteSpace=wrap;rounded=0;" vertex="1" parent="1">
          <mxGeometry x="330" y="99" width="180" height="200" as="geometry" />
        </mxCell>
        <mxCell id="aKRwsUcUuE09PBqjVHlD-5" value="" style="rounded=0;whiteSpace=wrap;html=1;align=left;" vertex="1" parent="1">
          <mxGeometry x="330" y="299" width="180" height="200" as="geometry" />
        </mxCell>
        <mxCell id="aKRwsUcUuE09PBqjVHlD-6" value="- handleStartWashing (wash)&lt;div&gt;- handleWashSelection (wash)&lt;/div&gt;&lt;div&gt;- updateProgress (selectedWash, elapsedTime)&lt;/div&gt;&lt;div&gt;- handleResetStatistics()&lt;/div&gt;&lt;div&gt;&lt;br&gt;&lt;/div&gt;&lt;div&gt;Timer functions:&lt;/div&gt;&lt;div&gt;- setInterval()&lt;/div&gt;&lt;div&gt;- clearInterval()&lt;/div&gt;" style="text;html=1;align=left;verticalAlign=middle;whiteSpace=wrap;rounded=0;" vertex="1" parent="1">
          <mxGeometry x="330" y="299" width="180" height="180" as="geometry" />
        </mxCell>
        <mxCell id="aKRwsUcUuE09PBqjVHlD-7" value="Maintenance" style="rounded=0;whiteSpace=wrap;html=1;" vertex="1" parent="1">
          <mxGeometry x="330" y="589" width="180" height="30" as="geometry" />
        </mxCell>
        <mxCell id="aKRwsUcUuE09PBqjVHlD-9" value="" style="rounded=0;whiteSpace=wrap;html=1;align=left;" vertex="1" parent="1">
          <mxGeometry x="330" y="619" width="180" height="50" as="geometry" />
        </mxCell>
        <mxCell id="aKRwsUcUuE09PBqjVHlD-8" value="- totalMoneyEarned : float&lt;div&gt;- totalTimeSwitchedOn : int&lt;/div&gt;" style="text;html=1;align=left;verticalAlign=middle;whiteSpace=wrap;rounded=0;" vertex="1" parent="1">
          <mxGeometry x="330" y="619" width="180" height="50" as="geometry" />
        </mxCell>
        <mxCell id="aKRwsUcUuE09PBqjVHlD-10" value="" style="rounded=0;whiteSpace=wrap;html=1;align=left;" vertex="1" parent="1">
          <mxGeometry x="330" y="669" width="180" height="90" as="geometry" />
        </mxCell>
        <mxCell id="aKRwsUcUuE09PBqjVHlD-12" style="edgeStyle=orthogonalEdgeStyle;rounded=0;orthogonalLoop=1;jettySize=auto;html=1;exitX=0.5;exitY=0;exitDx=0;exitDy=0;entryX=0.75;entryY=1;entryDx=0;entryDy=0;" edge="1" parent="1" source="aKRwsUcUuE09PBqjVHlD-7" target="aKRwsUcUuE09PBqjVHlD-5">
          <mxGeometry relative="1" as="geometry" />
        </mxCell>
        <mxCell id="aKRwsUcUuE09PBqjVHlD-11" value="- updateTotalTimeSwitchedOn (seconds)&lt;div&gt;- getStatistics()&lt;/div&gt;&lt;div&gt;- resetStatistics()&lt;/div&gt;" style="text;html=1;align=left;verticalAlign=middle;whiteSpace=wrap;rounded=0;" vertex="1" parent="1">
          <mxGeometry x="330" y="669" width="180" height="70" as="geometry" />
        </mxCell>
        <mxCell id="aKRwsUcUuE09PBqjVHlD-13" value="WashingProgress" style="rounded=0;whiteSpace=wrap;html=1;" vertex="1" parent="1">
          <mxGeometry x="680" y="389" width="180" height="30" as="geometry" />
        </mxCell>
        <mxCell id="aKRwsUcUuE09PBqjVHlD-14" value="" style="rounded=0;whiteSpace=wrap;html=1;align=left;" vertex="1" parent="1">
          <mxGeometry x="680" y="419" width="180" height="30" as="geometry" />
        </mxCell>
        <mxCell id="aKRwsUcUuE09PBqjVHlD-15" value="" style="rounded=0;whiteSpace=wrap;html=1;align=left;" vertex="1" parent="1">
          <mxGeometry x="680" y="449" width="180" height="180" as="geometry" />
        </mxCell>
        <mxCell id="aKRwsUcUuE09PBqjVHlD-22" style="edgeStyle=orthogonalEdgeStyle;rounded=0;orthogonalLoop=1;jettySize=auto;html=1;exitX=0;exitY=0.5;exitDx=0;exitDy=0;entryX=1;entryY=0.5;entryDx=0;entryDy=0;" edge="1" parent="1" source="aKRwsUcUuE09PBqjVHlD-16" target="aKRwsUcUuE09PBqjVHlD-6">
          <mxGeometry relative="1" as="geometry" />
        </mxCell>
        <mxCell id="aKRwsUcUuE09PBqjVHlD-16" value="- updateProgress (duration, elapsedTime)&lt;div&gt;- startWashingProgress (totalDuration, setElapsedTime, setIsWashing, setDoorStatus)&lt;/div&gt;&lt;div&gt;&lt;br&gt;&lt;/div&gt;&lt;div&gt;Timer functions:&lt;/div&gt;&lt;div&gt;- setInterval()&lt;/div&gt;" style="text;html=1;align=left;verticalAlign=middle;whiteSpace=wrap;rounded=0;" vertex="1" parent="1">
          <mxGeometry x="680" y="449" width="180" height="140" as="geometry" />
        </mxCell>
        <mxCell id="aKRwsUcUuE09PBqjVHlD-17" value="PreWash" style="rounded=0;whiteSpace=wrap;html=1;" vertex="1" parent="1">
          <mxGeometry x="680" y="69" width="180" height="30" as="geometry" />
        </mxCell>
        <mxCell id="aKRwsUcUuE09PBqjVHlD-18" value="" style="rounded=0;whiteSpace=wrap;html=1;align=left;" vertex="1" parent="1">
          <mxGeometry x="680" y="99" width="180" height="30" as="geometry" />
        </mxCell>
        <mxCell id="aKRwsUcUuE09PBqjVHlD-19" value="" style="rounded=0;whiteSpace=wrap;html=1;align=left;" vertex="1" parent="1">
          <mxGeometry x="680" y="129" width="180" height="150" as="geometry" />
        </mxCell>
        <mxCell id="aKRwsUcUuE09PBqjVHlD-21" style="edgeStyle=orthogonalEdgeStyle;rounded=0;orthogonalLoop=1;jettySize=auto;html=1;exitX=0;exitY=0.25;exitDx=0;exitDy=0;entryX=1;entryY=0.75;entryDx=0;entryDy=0;" edge="1" parent="1" source="aKRwsUcUuE09PBqjVHlD-20" target="aKRwsUcUuE09PBqjVHlD-4">
          <mxGeometry relative="1" as="geometry" />
        </mxCell>
        <mxCell id="aKRwsUcUuE09PBqjVHlD-20" value="- insertCoin (amount, totalAmount)&lt;div&gt;- selectWash(wash, totalAmount, setMessage, setSelectedWash)&lt;/div&gt;&lt;div&gt;- cancelWash(totalAmount, setMessage, setSelectedWash)&lt;/div&gt;" style="text;html=1;align=left;verticalAlign=middle;whiteSpace=wrap;rounded=0;" vertex="1" parent="1">
          <mxGeometry x="680" y="129" width="180" height="140" as="geometry" />
        </mxCell>
      </root>
    </mxGraphModel>
  </diagram>
</mxfile>
